<svg xmlns="http://www.w3.org/2000/svg" width="1240" height="1470" viewBox="0 0 1240 1470">
<rect width="1240" height="1470" fill="#FFFFFF"/>
<text x="620" y="56" font-family="Segoe UI, Arial, sans-serif" font-size="14.5" font-weight="700" fill="#4F46E5" text-anchor="middle" letter-spacing="3.5">OFFERBRIDGE · SYSTEM ARCHITECTURE</text><text x="620" y="92" font-family="Segoe UI, Arial, sans-serif" font-size="33" font-weight="700" fill="#0F172A" text-anchor="middle" >General Architecture</text><text x="620" y="122" font-family="Segoe UI, Arial, sans-serif" font-size="15.5" font-weight="400" fill="#64748B" text-anchor="middle" >React single-page application on a Supabase backend, with external integrations</text><rect x="76" y="170" width="186" height="60" rx="12" fill="#EEF2FF" stroke="#C7D2FE" stroke-width="1.4"  /><text x="169" y="196" font-family="Segoe UI, Arial, sans-serif" font-size="16.5" font-weight="700" fill="#3730A3" text-anchor="middle" >Visitor</text><text x="169" y="216" font-family="Segoe UI, Arial, sans-serif" font-size="12.3" font-weight="400" fill="#64748B" text-anchor="middle" >browses deals &amp; support</text><rect x="282" y="170" width="186" height="60" rx="12" fill="#EEF2FF" stroke="#C7D2FE" stroke-width="1.4"  /><text x="375" y="196" font-family="Segoe UI, Arial, sans-serif" font-size="16.5" font-weight="700" fill="#3730A3" text-anchor="middle" >Shopper</text><text x="375" y="216" font-family="Segoe UI, Arial, sans-serif" font-size="12.3" font-weight="400" fill="#64748B" text-anchor="middle" >posts card-offer deals</text><rect x="488" y="170" width="186" height="60" rx="12" fill="#EEF2FF" stroke="#C7D2FE" stroke-width="1.4"  /><text x="581" y="196" font-family="Segoe UI, Arial, sans-serif" font-size="16.5" font-weight="700" fill="#3730A3" text-anchor="middle" >Card Holder</text><text x="581" y="216" font-family="Segoe UI, Arial, sans-serif" font-size="12.3" font-weight="400" fill="#64748B" text-anchor="middle" >fulfils deals, earns</text><rect x="694" y="170" width="186" height="60" rx="12" fill="#EEF2FF" stroke="#C7D2FE" stroke-width="1.4"  /><text x="787" y="196" font-family="Segoe UI, Arial, sans-serif" font-size="16.5" font-weight="700" fill="#3730A3" text-anchor="middle" >Admin</text><text x="787" y="216" font-family="Segoe UI, Arial, sans-serif" font-size="12.3" font-weight="400" fill="#64748B" text-anchor="middle" >operates the platform</text><text x="478" y="256" font-family="Segoe UI, Arial, sans-serif" font-size="13" font-weight="400" fill="#64748B" text-anchor="middle" >Web browser  ·  Installed PWA (home-screen app with auto-updating service worker)</text><rect x="1010" y="170" width="178" height="60" rx="12" fill="#ECFDF5" stroke="#A7F3D0" stroke-width="1.4"  /><text x="1099" y="196" font-family="Segoe UI, Arial, sans-serif" font-size="15.5" font-weight="700" fill="#059669" text-anchor="middle" >WhatsApp</text><text x="1099" y="216" font-family="Segoe UI, Arial, sans-serif" font-size="12.3" font-weight="400" fill="#64748B" text-anchor="middle" >support chat</text><path d="M1099 304 L1099 230" fill="none" stroke="#059669" stroke-width="1.5" stroke-dasharray="5 4" stroke-linejoin="round"/><path d="M1102.2 236.8 L1099 230 L1095.8 236.8 Z" fill="#059669"/><rect x="1042.09" y="255.8125" width="113.82" height="22.375" rx="6" fill="#FFFFFF" opacity="0.94"/><text x="1099" y="269.1875" font-family="Segoe UI, Arial, sans-serif" font-size="11.5" font-weight="500" fill="#64748B" text-anchor="middle" >wa.me support link</text><path d="M490 270 L490 304" fill="none" stroke="#475569" stroke-width="2"  stroke-linejoin="round"/><path d="M486.8 297.2 L490 304 L493.2 297.2 Z" fill="#475569"/><rect x="56" y="304" width="1128" height="330" rx="14" fill="#FBFCFE" stroke="#CBD5E1" stroke-width="1.5"  /><text x="78" y="336" font-family="Segoe UI, Arial, sans-serif" font-size="18.5" font-weight="700" fill="#0F172A" text-anchor="start" >Client Application</text><text x="1162" y="336" font-family="Segoe UI, Arial, sans-serif" font-size="13" font-weight="400" fill="#64748B" text-anchor="end" >React 18 · TypeScript · Vite · single-page app</text><rect x="80" y="352" width="1080" height="74" rx="10" fill="#FFFFFF" stroke="#CBD5E1" stroke-width="1.4"  /><path d="M80 352  h1080 v4 h-1080 Z" fill="none"/><line x1="92" y1="386" x2="1148" y2="386" stroke="#EEF2FF" stroke-width="1.6"/><rect x="80" y="352" width="5" height="74" rx="2.5" fill="#4F46E5"/><text x="98" y="376" font-family="Segoe UI, Arial, sans-serif" font-size="16" font-weight="700" fill="#0F172A" text-anchor="start" >Pages &amp; Routing — React Router v6</text><text x="98" y="408" font-family="Segoe UI, Arial, sans-serif" font-size="12.8" font-weight="400" fill="#334155" text-anchor="start" >15 routes: Landing · Auth · Dashboard · Browse Deals · Deal Detail · Create Deal · Admin Panel · Wallet · KYC · Profile · Price Tracker · Refer &amp; Earn · Notifications · Support · 404</text><rect x="80" y="440" width="344" height="104" rx="10" fill="#FFFFFF" stroke="#CBD5E1" stroke-width="1.4"  /><path d="M80 440  h344 v4 h-344 Z" fill="none"/><line x1="92" y1="474" x2="412" y2="474" stroke="#EEF2FF" stroke-width="1.6"/><rect x="80" y="440" width="5" height="104" rx="2.5" fill="#4F46E5"/><text x="98" y="464" font-family="Segoe UI, Arial, sans-serif" font-size="16" font-weight="700" fill="#0F172A" text-anchor="start" >State &amp; Data</text><text x="98" y="496" font-family="Segoe UI, Arial, sans-serif" font-size="12.8" font-weight="400" fill="#334155" text-anchor="start" >TanStack Query cache · AuthContext session &amp; role</text><text x="98" y="517" font-family="Segoe UI, Arial, sans-serif" font-size="12.8" font-weight="400" fill="#334155" text-anchor="start" >state · zod validation</text><rect x="448" y="440" width="344" height="104" rx="10" fill="#FFFFFF" stroke="#CBD5E1" stroke-width="1.4"  /><path d="M448 440  h344 v4 h-344 Z" fill="none"/><line x1="460" y1="474" x2="780" y2="474" stroke="#EEF2FF" stroke-width="1.6"/><rect x="448" y="440" width="5" height="104" rx="2.5" fill="#4F46E5"/><text x="466" y="464" font-family="Segoe UI, Arial, sans-serif" font-size="16" font-weight="700" fill="#0F172A" text-anchor="start" >UI System</text><text x="466" y="496" font-family="Segoe UI, Arial, sans-serif" font-size="12.8" font-weight="400" fill="#334155" text-anchor="start" >Tailwind CSS · shadcn/ui (Radix) · framer-motion &amp;</text><text x="466" y="517" font-family="Segoe UI, Arial, sans-serif" font-size="12.8" font-weight="400" fill="#334155" text-anchor="start" >GSAP · Recharts price charts</text><rect x="816" y="440" width="344" height="104" rx="10" fill="#FFFFFF" stroke="#CBD5E1" stroke-width="1.4"  /><path d="M816 440  h344 v4 h-344 Z" fill="none"/><line x1="828" y1="474" x2="1148" y2="474" stroke="#EEF2FF" stroke-width="1.6"/><rect x="816" y="440" width="5" height="104" rx="2.5" fill="#4F46E5"/><text x="834" y="464" font-family="Segoe UI, Arial, sans-serif" font-size="16" font-weight="700" fill="#0F172A" text-anchor="start" >PWA Shell</text><text x="834" y="496" font-family="Segoe UI, Arial, sans-serif" font-size="12.8" font-weight="400" fill="#334155" text-anchor="start" >vite-plugin-pwa service worker · offline app shell ·</text><text x="834" y="517" font-family="Segoe UI, Arial, sans-serif" font-size="12.8" font-weight="400" fill="#334155" text-anchor="start" >install prompt · auto-update</text><rect x="80" y="558" width="1080" height="46" rx="10" fill="#EEF2FF" stroke="#C7D2FE" stroke-width="1.4"  /><text x="620" y="587" font-family="Segoe UI, Arial, sans-serif" font-size="14.5" font-weight="600" fill="#3730A3" text-anchor="middle" >supabase-js SDK  —  Auth  ·  PostgREST data &amp; RPC  ·  Storage  ·  Edge Functions</text><path d="M620 634 L620 690" fill="none" stroke="#475569" stroke-width="2"  stroke-linejoin="round"/><path d="M616.8 683.2 L620 690 L623.2 683.2 Z" fill="#475569"/><rect x="492.936" y="650" width="254.12800000000004" height="24" rx="6" fill="#FFFFFF" opacity="0.94"/><text x="620" y="665" font-family="Segoe UI, Arial, sans-serif" font-size="12.8" font-weight="500" fill="#64748B" text-anchor="middle" >HTTPS · JWT-authenticated REST / RPC</text><rect x="56" y="690" width="1128" height="560" rx="14" fill="#FBFCFE" stroke="#CBD5E1" stroke-width="1.5"  /><text x="78" y="722" font-family="Segoe UI, Arial, sans-serif" font-size="18.5" font-weight="700" fill="#0F172A" text-anchor="start" >Supabase Platform</text><text x="1162" y="722" font-family="Segoe UI, Arial, sans-serif" font-size="13" font-weight="400" fill="#64748B" text-anchor="end" >managed backend-as-a-service</text><rect x="80" y="738" width="253" height="158" rx="10" fill="#FFFFFF" stroke="#CBD5E1" stroke-width="1.4"  /><path d="M80 738  h253 v4 h-253 Z" fill="none"/><line x1="92" y1="772" x2="321" y2="772" stroke="#EEF2FF" stroke-width="1.6"/><rect x="80" y="738" width="5" height="158" rx="2.5" fill="#4F46E5"/><text x="98" y="762" font-family="Segoe UI, Arial, sans-serif" font-size="16" font-weight="700" fill="#0F172A" text-anchor="start" >Auth</text><text x="98" y="794" font-family="Segoe UI, Arial, sans-serif" font-size="12.6" font-weight="400" fill="#334155" text-anchor="start" >Email + password sign-up</text><text x="98" y="815" font-family="Segoe UI, Arial, sans-serif" font-size="12.6" font-weight="400" fill="#334155" text-anchor="start" >with email-OTP verification;</text><text x="98" y="836" font-family="Segoe UI, Arial, sans-serif" font-size="12.6" font-weight="400" fill="#334155" text-anchor="start" >Google OAuth 2.0; JWT</text><text x="98" y="857" font-family="Segoe UI, Arial, sans-serif" font-size="12.6" font-weight="400" fill="#334155" text-anchor="start" >sessions &amp; refresh</text><path d="M206.5 896 L206.5 932" fill="none" stroke="#94A3B8" stroke-width="1.7"  stroke-linejoin="round"/><path d="M203.3 925.2 L206.5 932 L209.7 925.2 Z" fill="#94A3B8"/><rect x="355.6" y="738" width="253" height="158" rx="10" fill="#FFFFFF" stroke="#CBD5E1" stroke-width="1.4"  /><path d="M355.6 738  h253 v4 h-253 Z" fill="none"/><line x1="367.6" y1="772" x2="596.6" y2="772" stroke="#EEF2FF" stroke-width="1.6"/><rect x="355.6" y="738" width="5" height="158" rx="2.5" fill="#4F46E5"/><text x="373.6" y="762" font-family="Segoe UI, Arial, sans-serif" font-size="16" font-weight="700" fill="#0F172A" text-anchor="start" >PostgREST API</text><text x="373.6" y="794" font-family="Segoe UI, Arial, sans-serif" font-size="12.6" font-weight="400" fill="#334155" text-anchor="start" >Auto REST on tables under</text><text x="373.6" y="815" font-family="Segoe UI, Arial, sans-serif" font-size="12.6" font-weight="400" fill="#334155" text-anchor="start" >row-level security; RPC</text><text x="373.6" y="836" font-family="Segoe UI, Arial, sans-serif" font-size="12.6" font-weight="400" fill="#334155" text-anchor="start" >endpoints for all state</text><text x="373.6" y="857" font-family="Segoe UI, Arial, sans-serif" font-size="12.6" font-weight="400" fill="#334155" text-anchor="start" >transitions</text><path d="M482.1 896 L482.1 932" fill="none" stroke="#94A3B8" stroke-width="1.7"  stroke-linejoin="round"/><path d="M478.9 925.2 L482.1 932 L485.3 925.2 Z" fill="#94A3B8"/><rect x="631.2" y="738" width="253" height="158" rx="10" fill="#FFFFFF" stroke="#CBD5E1" stroke-width="1.4"  /><path d="M631.2 738  h253 v4 h-253 Z" fill="none"/><line x1="643.2" y1="772" x2="872.2" y2="772" stroke="#EEF2FF" stroke-width="1.6"/><rect x="631.2" y="738" width="5" height="158" rx="2.5" fill="#4F46E5"/><text x="649.2" y="762" font-family="Segoe UI, Arial, sans-serif" font-size="16" font-weight="700" fill="#0F172A" text-anchor="start" >Storage</text><text x="649.2" y="794" font-family="Segoe UI, Arial, sans-serif" font-size="12.6" font-weight="400" fill="#334155" text-anchor="start" >Private buckets:</text><text x="649.2" y="815" font-family="Segoe UI, Arial, sans-serif" font-size="12.6" font-weight="400" fill="#334155" text-anchor="start" >kyc-documents and</text><text x="649.2" y="836" font-family="Segoe UI, Arial, sans-serif" font-size="12.6" font-weight="400" fill="#334155" text-anchor="start" >order-screenshots; served</text><text x="649.2" y="857" font-family="Segoe UI, Arial, sans-serif" font-size="12.6" font-weight="400" fill="#334155" text-anchor="start" >via short-lived signed URLs</text><path d="M757.7 896 L757.7 932" fill="none" stroke="#94A3B8" stroke-width="1.7"  stroke-linejoin="round"/><path d="M754.5 925.2 L757.7 932 L760.9 925.2 Z" fill="#94A3B8"/><rect x="906.8000000000001" y="738" width="253" height="158" rx="10" fill="#FFFFFF" stroke="#CBD5E1" stroke-width="1.4"  /><path d="M906.8000000000001 738  h253 v4 h-253 Z" fill="none"/><line x1="918.8000000000001" y1="772" x2="1147.8000000000002" y2="772" stroke="#EEF2FF" stroke-width="1.6"/><rect x="906.8000000000001" y="738" width="5" height="158" rx="2.5" fill="#4F46E5"/><text x="924.8000000000001" y="762" font-family="Segoe UI, Arial, sans-serif" font-size="16" font-weight="700" fill="#0F172A" text-anchor="start" >Edge Functions</text><text x="924.8000000000001" y="794" font-family="Segoe UI, Arial, sans-serif" font-size="12.6" font-weight="400" fill="#334155" text-anchor="start" >price-check (Deno):</text><text x="924.8000000000001" y="815" font-family="Segoe UI, Arial, sans-serif" font-size="12.6" font-weight="400" fill="#334155" text-anchor="start" >server-side product-page</text><text x="924.8000000000001" y="836" font-family="Segoe UI, Arial, sans-serif" font-size="12.6" font-weight="400" fill="#334155" text-anchor="start" >fetch &amp; JSON-LD / OpenGraph</text><text x="924.8000000000001" y="857" font-family="Segoe UI, Arial, sans-serif" font-size="12.6" font-weight="400" fill="#334155" text-anchor="start" >parsing; cron endpoint</text><path d="M1033.3000000000002 896 L1033.3000000000002 932" fill="none" stroke="#94A3B8" stroke-width="1.7"  stroke-linejoin="round"/><path d="M1030.1 925.2 L1033.3000000000002 932 L1036.5 925.2 Z" fill="#94A3B8"/><rect x="80" y="932" width="1080" height="286" rx="12" fill="#FFFFFF" stroke="#C7D2FE" stroke-width="1.6"  /><rect x="80" y="932" width="1080" height="40" rx="12" fill="#EEF2FF"/><rect x="80" y="960" width="1080" height="12" fill="#EEF2FF"/><text x="100" y="959" font-family="Segoe UI, Arial, sans-serif" font-size="17" font-weight="700" fill="#3730A3" text-anchor="start" >PostgreSQL Database</text><text x="1140" y="959" font-family="Segoe UI, Arial, sans-serif" font-size="12.6" font-weight="400" fill="#64748B" text-anchor="end" >single source of truth</text><rect x="98" y="990" width="340" height="92" rx="10" fill="#F8FAFC" stroke="#E2E8F0" stroke-width="1.3"  /><text x="114" y="1018" font-family="Segoe UI, Arial, sans-serif" font-size="14.5" font-weight="700" fill="#0F172A" text-anchor="start" >Relational Schema</text><text x="114" y="1042" font-family="Segoe UI, Arial, sans-serif" font-size="12.6" font-weight="400" fill="#334155" text-anchor="start" >20 tables · 6 enums · foreign-key &amp; CHECK</text><text x="114" y="1062" font-family="Segoe UI, Arial, sans-serif" font-size="12.6" font-weight="400" fill="#334155" text-anchor="start" >constraints</text><rect x="462" y="990" width="340" height="92" rx="10" fill="#F8FAFC" stroke="#E2E8F0" stroke-width="1.3"  /><text x="478" y="1018" font-family="Segoe UI, Arial, sans-serif" font-size="14.5" font-weight="700" fill="#0F172A" text-anchor="start" >Row-Level Security</text><text x="478" y="1042" font-family="Segoe UI, Arial, sans-serif" font-size="12.6" font-weight="400" fill="#334155" text-anchor="start" >per-role read/write policies enforced on every table</text><rect x="826" y="990" width="340" height="92" rx="10" fill="#F8FAFC" stroke="#E2E8F0" stroke-width="1.3"  /><text x="842" y="1018" font-family="Segoe UI, Arial, sans-serif" font-size="14.5" font-weight="700" fill="#0F172A" text-anchor="start" >RPC State Machine</text><text x="842" y="1042" font-family="Segoe UI, Arial, sans-serif" font-size="12.6" font-weight="400" fill="#334155" text-anchor="start" >40+ SECURITY DEFINER functions guard all</text><text x="842" y="1062" font-family="Segoe UI, Arial, sans-serif" font-size="12.6" font-weight="400" fill="#334155" text-anchor="start" >transitions</text><rect x="98" y="1102" width="340" height="92" rx="10" fill="#F8FAFC" stroke="#E2E8F0" stroke-width="1.3"  /><text x="114" y="1130" font-family="Segoe UI, Arial, sans-serif" font-size="14.5" font-weight="700" fill="#0F172A" text-anchor="start" >Triggers</text><text x="114" y="1154" font-family="Segoe UI, Arial, sans-serif" font-size="12.6" font-weight="400" fill="#334155" text-anchor="start" >signup provisioning (profile + wallet) · updated_at</text><text x="114" y="1174" font-family="Segoe UI, Arial, sans-serif" font-size="12.6" font-weight="400" fill="#334155" text-anchor="start" >stamps</text><rect x="462" y="1102" width="340" height="92" rx="10" fill="#F8FAFC" stroke="#E2E8F0" stroke-width="1.3"  /><text x="478" y="1130" font-family="Segoe UI, Arial, sans-serif" font-size="14.5" font-weight="700" fill="#0F172A" text-anchor="start" >Scheduling</text><text x="478" y="1154" font-family="Segoe UI, Arial, sans-serif" font-size="12.6" font-weight="400" fill="#334155" text-anchor="start" >pg_cron + pg_net call the price-check function every</text><text x="478" y="1174" font-family="Segoe UI, Arial, sans-serif" font-size="12.6" font-weight="400" fill="#334155" text-anchor="start" >6 h</text><rect x="826" y="1102" width="340" height="92" rx="10" fill="#F8FAFC" stroke="#E2E8F0" stroke-width="1.3"  /><text x="842" y="1130" font-family="Segoe UI, Arial, sans-serif" font-size="14.5" font-weight="700" fill="#0F172A" text-anchor="start" >Audit &amp; Reliability</text><text x="842" y="1154" font-family="Segoe UI, Arial, sans-serif" font-size="12.6" font-weight="400" fill="#334155" text-anchor="start" >reservation_events trail · strikes &amp; cooldown state</text><path d="M1140 932 L1140 896" fill="none" stroke="#94A3B8" stroke-width="1.5" stroke-dasharray="5 4" stroke-linejoin="round"/><path d="M1143.2 902.8 L1140 896 L1136.8 902.8 Z" fill="#94A3B8"/><rect x="1108.275" y="902.8125" width="63.449999999999996" height="22.375" rx="6" fill="#FFFFFF" opacity="0.94"/><text x="1140" y="916.1875" font-family="Segoe UI, Arial, sans-serif" font-size="11.5" font-weight="500" fill="#64748B" text-anchor="middle" >cron · 6 h</text><rect x="56" y="1310" width="344" height="104" rx="12" fill="#EEF2FF" stroke="#C7D2FE" stroke-width="1.4"  /><text x="74" y="1340" font-family="Segoe UI, Arial, sans-serif" font-size="15.5" font-weight="700" fill="#4F46E5" text-anchor="start" >Google OAuth 2.0</text><text x="74" y="1366" font-family="Segoe UI, Arial, sans-serif" font-size="12.6" font-weight="400" fill="#334155" text-anchor="start" >identity provider for one-tap Google sign-in</text><rect x="448" y="1310" width="344" height="104" rx="12" fill="#FFFBEB" stroke="#FDE68A" stroke-width="1.4"  /><text x="466" y="1340" font-family="Segoe UI, Arial, sans-serif" font-size="15.5" font-weight="700" fill="#B45309" text-anchor="start" >Email Delivery</text><text x="466" y="1366" font-family="Segoe UI, Arial, sans-serif" font-size="12.6" font-weight="400" fill="#334155" text-anchor="start" >verification-OTP and account emails sent by</text><text x="466" y="1386" font-family="Segoe UI, Arial, sans-serif" font-size="12.6" font-weight="400" fill="#334155" text-anchor="start" >Supabase Auth</text><rect x="840" y="1310" width="344" height="104" rx="12" fill="#ECFDF5" stroke="#A7F3D0" stroke-width="1.4"  /><text x="858" y="1340" font-family="Segoe UI, Arial, sans-serif" font-size="15.5" font-weight="700" fill="#059669" text-anchor="start" >E-commerce Product Pages</text><text x="858" y="1366" font-family="Segoe UI, Arial, sans-serif" font-size="12.6" font-weight="400" fill="#334155" text-anchor="start" >Amazon · Flipkart · Myntra · AJIO · Meesho — fetched</text><text x="858" y="1386" font-family="Segoe UI, Arial, sans-serif" font-size="12.6" font-weight="400" fill="#334155" text-anchor="start" >server-side (optional ScraperAPI relay)</text><path d="M228 1250 L228 1310" fill="none" stroke="#475569" stroke-width="1.8"  stroke-linejoin="round"/><path d="M224.8 1303.2 L228 1310 L231.2 1303.2 Z" fill="#475569"/><path d="M231.2 1256.8 L228 1250 L224.8 1256.8 Z" fill="#475569"/><rect x="172.90699999999998" y="1268.3125" width="110.186" height="23.375" rx="6" fill="#FFFFFF" opacity="0.94"/><text x="228" y="1282.6875" font-family="Segoe UI, Arial, sans-serif" font-size="12.3" font-weight="500" fill="#64748B" text-anchor="middle" >OAuth handshake</text><path d="M620 1250 L620 1310" fill="none" stroke="#475569" stroke-width="1.8"  stroke-linejoin="round"/><path d="M616.8 1303.2 L620 1310 L623.2 1303.2 Z" fill="#475569"/><rect x="551.623" y="1268.3125" width="136.75400000000002" height="23.375" rx="6" fill="#FFFFFF" opacity="0.94"/><text x="620" y="1282.6875" font-family="Segoe UI, Arial, sans-serif" font-size="12.3" font-weight="500" fill="#64748B" text-anchor="middle" >OTP &amp; account emails</text><path d="M1012 1250 L1012 1310" fill="none" stroke="#475569" stroke-width="1.8"  stroke-linejoin="round"/><path d="M1008.8 1303.2 L1012 1310 L1015.2 1303.2 Z" fill="#475569"/><path d="M1015.2 1256.8 L1012 1250 L1008.8 1256.8 Z" fill="#475569"/><rect x="954.324" y="1268.3125" width="115.35199999999999" height="23.375" rx="6" fill="#FFFFFF" opacity="0.94"/><text x="1012" y="1282.6875" font-family="Segoe UI, Arial, sans-serif" font-size="12.3" font-weight="500" fill="#64748B" text-anchor="middle" >HTTPS price fetch</text>
</svg>