<svg xmlns="http://www.w3.org/2000/svg" width="2140" height="1330" viewBox="0 0 2140 1330">
<rect width="2140" height="1330" fill="#FFFFFF"/>
<text x="1070" y="56" font-family="Segoe UI, Arial, sans-serif" font-size="14.5" font-weight="700" fill="#4F46E5" text-anchor="middle" letter-spacing="3.5">OFFERBRIDGE · DATA FLOW DIAGRAM</text><text x="1070" y="92" font-family="Segoe UI, Arial, sans-serif" font-size="33" font-weight="700" fill="#0F172A" text-anchor="middle" >Level-1 DFD — Major Processes and Data Stores</text><text x="1070" y="122" font-family="Segoe UI, Arial, sans-serif" font-size="15.5" font-weight="400" fill="#64748B" text-anchor="middle" >Decomposition of the OfferBridge platform into its six core processes</text><rect x="344" y="560" width="240" height="170" rx="14" fill="#0F172A" opacity="0.07"/><rect x="340" y="555" width="240" height="170" rx="14" fill="#FFFFFF" stroke="#4F46E5" stroke-width="1.8"  /><path d="M340 569 a14 14 0 0 1 14 -14 h212 a14 14 0 0 1 14 14 v18 h-240 Z" fill="#EEF2FF"/><text x="354" y="577" font-family="Segoe UI, Arial, sans-serif" font-size="15" font-weight="700" fill="#4F46E5" text-anchor="start" >2.0</text><text x="460" y="635" font-family="Segoe UI, Arial, sans-serif" font-size="16" font-weight="700" fill="#0F172A" text-anchor="middle" >Deal Lifecycle</text><text x="460" y="657" font-family="Segoe UI, Arial, sans-serif" font-size="16" font-weight="700" fill="#0F172A" text-anchor="middle" >Management</text><text x="460" y="679" font-family="Segoe UI, Arial, sans-serif" font-size="12.2" font-weight="400" fill="#64748B" text-anchor="middle" >create · review · reserve ·</text><text x="460" y="696" font-family="Segoe UI, Arial, sans-serif" font-size="12.2" font-weight="400" fill="#64748B" text-anchor="middle" >order proof · expire · complete</text><rect x="644" y="560" width="240" height="170" rx="14" fill="#0F172A" opacity="0.07"/><rect x="640" y="555" width="240" height="170" rx="14" fill="#FFFFFF" stroke="#4F46E5" stroke-width="1.8"  /><path d="M640 569 a14 14 0 0 1 14 -14 h212 a14 14 0 0 1 14 14 v18 h-240 Z" fill="#EEF2FF"/><text x="654" y="577" font-family="Segoe UI, Arial, sans-serif" font-size="15" font-weight="700" fill="#4F46E5" text-anchor="start" >6.0</text><text x="760" y="635" font-family="Segoe UI, Arial, sans-serif" font-size="16" font-weight="700" fill="#0F172A" text-anchor="middle" >Notification</text><text x="760" y="657" font-family="Segoe UI, Arial, sans-serif" font-size="16" font-weight="700" fill="#0F172A" text-anchor="middle" >Delivery</text><text x="760" y="679" font-family="Segoe UI, Arial, sans-serif" font-size="12.2" font-weight="400" fill="#64748B" text-anchor="middle" >in-app alerts for every</text><text x="760" y="696" font-family="Segoe UI, Arial, sans-serif" font-size="12.2" font-weight="400" fill="#64748B" text-anchor="middle" >lifecycle event</text><rect x="944" y="560" width="240" height="170" rx="14" fill="#0F172A" opacity="0.07"/><rect x="940" y="555" width="240" height="170" rx="14" fill="#FFFFFF" stroke="#4F46E5" stroke-width="1.8"  /><path d="M940 569 a14 14 0 0 1 14 -14 h212 a14 14 0 0 1 14 14 v18 h-240 Z" fill="#EEF2FF"/><text x="954" y="577" font-family="Segoe UI, Arial, sans-serif" font-size="15" font-weight="700" fill="#4F46E5" text-anchor="start" >3.0</text><text x="1060" y="635" font-family="Segoe UI, Arial, sans-serif" font-size="16" font-weight="700" fill="#0F172A" text-anchor="middle" >Settlement &amp;</text><text x="1060" y="657" font-family="Segoe UI, Arial, sans-serif" font-size="16" font-weight="700" fill="#0F172A" text-anchor="middle" >Wallet</text><text x="1060" y="679" font-family="Segoe UI, Arial, sans-serif" font-size="12.2" font-weight="400" fill="#64748B" text-anchor="middle" >payout credit · ledger ·</text><text x="1060" y="696" font-family="Segoe UI, Arial, sans-serif" font-size="12.2" font-weight="400" fill="#64748B" text-anchor="middle" >KYC gate · withdrawals</text><rect x="1244" y="560" width="240" height="170" rx="14" fill="#0F172A" opacity="0.07"/><rect x="1240" y="555" width="240" height="170" rx="14" fill="#FFFFFF" stroke="#4F46E5" stroke-width="1.8"  /><path d="M1240 569 a14 14 0 0 1 14 -14 h212 a14 14 0 0 1 14 14 v18 h-240 Z" fill="#EEF2FF"/><text x="1254" y="577" font-family="Segoe UI, Arial, sans-serif" font-size="15" font-weight="700" fill="#4F46E5" text-anchor="start" >4.0</text><text x="1360" y="635" font-family="Segoe UI, Arial, sans-serif" font-size="16" font-weight="700" fill="#0F172A" text-anchor="middle" >Referral</text><text x="1360" y="657" font-family="Segoe UI, Arial, sans-serif" font-size="16" font-weight="700" fill="#0F172A" text-anchor="middle" >Program</text><text x="1360" y="679" font-family="Segoe UI, Arial, sans-serif" font-size="12.2" font-weight="400" fill="#64748B" text-anchor="middle" >attribution · qualification</text><text x="1360" y="696" font-family="Segoe UI, Arial, sans-serif" font-size="12.2" font-weight="400" fill="#64748B" text-anchor="middle" >· rewards</text><rect x="1544" y="560" width="240" height="170" rx="14" fill="#0F172A" opacity="0.07"/><rect x="1540" y="555" width="240" height="170" rx="14" fill="#FFFFFF" stroke="#4F46E5" stroke-width="1.8"  /><path d="M1540 569 a14 14 0 0 1 14 -14 h212 a14 14 0 0 1 14 14 v18 h-240 Z" fill="#EEF2FF"/><text x="1554" y="577" font-family="Segoe UI, Arial, sans-serif" font-size="15" font-weight="700" fill="#4F46E5" text-anchor="start" >5.0</text><text x="1660" y="635" font-family="Segoe UI, Arial, sans-serif" font-size="16" font-weight="700" fill="#0F172A" text-anchor="middle" >Price</text><text x="1660" y="657" font-family="Segoe UI, Arial, sans-serif" font-size="16" font-weight="700" fill="#0F172A" text-anchor="middle" >Tracker</text><text x="1660" y="679" font-family="Segoe UI, Arial, sans-serif" font-size="12.2" font-weight="400" fill="#64748B" text-anchor="middle" >track products · history ·</text><text x="1660" y="696" font-family="Segoe UI, Arial, sans-serif" font-size="12.2" font-weight="400" fill="#64748B" text-anchor="middle" >buy advice · alerts</text><rect x="1844" y="560" width="240" height="170" rx="14" fill="#0F172A" opacity="0.07"/><rect x="1840" y="555" width="240" height="170" rx="14" fill="#FFFFFF" stroke="#4F46E5" stroke-width="1.8"  /><path d="M1840 569 a14 14 0 0 1 14 -14 h212 a14 14 0 0 1 14 14 v18 h-240 Z" fill="#EEF2FF"/><text x="1854" y="577" font-family="Segoe UI, Arial, sans-serif" font-size="15" font-weight="700" fill="#4F46E5" text-anchor="start" >1.0</text><text x="1960" y="635" font-family="Segoe UI, Arial, sans-serif" font-size="16" font-weight="700" fill="#0F172A" text-anchor="middle" >Authentication</text><text x="1960" y="657" font-family="Segoe UI, Arial, sans-serif" font-size="16" font-weight="700" fill="#0F172A" text-anchor="middle" >&amp; Profiles</text><text x="1960" y="679" font-family="Segoe UI, Arial, sans-serif" font-size="12.2" font-weight="400" fill="#64748B" text-anchor="middle" >email-OTP · Google OAuth ·</text><text x="1960" y="696" font-family="Segoe UI, Arial, sans-serif" font-size="12.2" font-weight="400" fill="#64748B" text-anchor="middle" >signup provisioning</text><rect x="340" y="307" width="240" height="46" fill="#ECFEFF" opacity="0.55"/><line x1="340" y1="307" x2="580" y2="307" stroke="#0E7490" stroke-width="1.8"/><line x1="340" y1="353" x2="580" y2="353" stroke="#0E7490" stroke-width="1.8"/><line x1="384" y1="307" x2="384" y2="353" stroke="#0E7490" stroke-width="1.4"/><line x1="340" y1="307" x2="340" y2="353" stroke="#0E7490" stroke-width="1.8"/><text x="362" y="335.5" font-family="Segoe UI, Arial, sans-serif" font-size="14" font-weight="700" fill="#0E7490" text-anchor="middle" >D2</text><text x="396" y="330.5" font-family="Segoe UI, Arial, sans-serif" font-size="14.6" font-weight="600" fill="#0F172A" text-anchor="start" >Deals</text><text x="396" y="347" font-family="Segoe UI, Arial, sans-serif" font-size="11.3" font-weight="400" fill="#64748B" text-anchor="start" >deals</text><rect x="650" y="307" width="240" height="46" fill="#ECFEFF" opacity="0.55"/><line x1="650" y1="307" x2="890" y2="307" stroke="#0E7490" stroke-width="1.8"/><line x1="650" y1="353" x2="890" y2="353" stroke="#0E7490" stroke-width="1.8"/><line x1="694" y1="307" x2="694" y2="353" stroke="#0E7490" stroke-width="1.4"/><line x1="650" y1="307" x2="650" y2="353" stroke="#0E7490" stroke-width="1.8"/><text x="672" y="335.5" font-family="Segoe UI, Arial, sans-serif" font-size="14" font-weight="700" fill="#0E7490" text-anchor="middle" >D9</text><text x="706" y="330.5" font-family="Segoe UI, Arial, sans-serif" font-size="14.6" font-weight="600" fill="#0F172A" text-anchor="start" >Notifications</text><text x="706" y="347" font-family="Segoe UI, Arial, sans-serif" font-size="11.3" font-weight="400" fill="#64748B" text-anchor="start" >notifications</text><rect x="940" y="307" width="240" height="46" fill="#ECFEFF" opacity="0.55"/><line x1="940" y1="307" x2="1180" y2="307" stroke="#0E7490" stroke-width="1.8"/><line x1="940" y1="353" x2="1180" y2="353" stroke="#0E7490" stroke-width="1.8"/><line x1="984" y1="307" x2="984" y2="353" stroke="#0E7490" stroke-width="1.4"/><line x1="940" y1="307" x2="940" y2="353" stroke="#0E7490" stroke-width="1.8"/><text x="962" y="335.5" font-family="Segoe UI, Arial, sans-serif" font-size="14" font-weight="700" fill="#0E7490" text-anchor="middle" >D5</text><text x="996" y="330.5" font-family="Segoe UI, Arial, sans-serif" font-size="14.6" font-weight="600" fill="#0F172A" text-anchor="start" >Wallets &amp; Ledger</text><text x="996" y="347" font-family="Segoe UI, Arial, sans-serif" font-size="11.3" font-weight="400" fill="#64748B" text-anchor="start" >wallets · payments</text><rect x="1240" y="307" width="240" height="46" fill="#ECFEFF" opacity="0.55"/><line x1="1240" y1="307" x2="1480" y2="307" stroke="#0E7490" stroke-width="1.8"/><line x1="1240" y1="353" x2="1480" y2="353" stroke="#0E7490" stroke-width="1.8"/><line x1="1284" y1="307" x2="1284" y2="353" stroke="#0E7490" stroke-width="1.4"/><line x1="1240" y1="307" x2="1240" y2="353" stroke="#0E7490" stroke-width="1.8"/><text x="1262" y="335.5" font-family="Segoe UI, Arial, sans-serif" font-size="14" font-weight="700" fill="#0E7490" text-anchor="middle" >D7</text><text x="1296" y="330.5" font-family="Segoe UI, Arial, sans-serif" font-size="14.6" font-weight="600" fill="#0F172A" text-anchor="start" >Referrals</text><text x="1296" y="347" font-family="Segoe UI, Arial, sans-serif" font-size="11.3" font-weight="400" fill="#64748B" text-anchor="start" >referrals · referral_config</text><rect x="1540" y="307" width="240" height="46" fill="#ECFEFF" opacity="0.55"/><line x1="1540" y1="307" x2="1780" y2="307" stroke="#0E7490" stroke-width="1.8"/><line x1="1540" y1="353" x2="1780" y2="353" stroke="#0E7490" stroke-width="1.8"/><line x1="1584" y1="307" x2="1584" y2="353" stroke="#0E7490" stroke-width="1.4"/><line x1="1540" y1="307" x2="1540" y2="353" stroke="#0E7490" stroke-width="1.8"/><text x="1562" y="335.5" font-family="Segoe UI, Arial, sans-serif" font-size="14" font-weight="700" fill="#0E7490" text-anchor="middle" >D8</text><text x="1596" y="330.5" font-family="Segoe UI, Arial, sans-serif" font-size="14.6" font-weight="600" fill="#0F172A" text-anchor="start" >Tracked Products</text><text x="1596" y="347" font-family="Segoe UI, Arial, sans-serif" font-size="11.3" font-weight="400" fill="#64748B" text-anchor="start" >tracked_products · price_history</text><rect x="1840" y="307" width="240" height="46" fill="#ECFEFF" opacity="0.55"/><line x1="1840" y1="307" x2="2080" y2="307" stroke="#0E7490" stroke-width="1.8"/><line x1="1840" y1="353" x2="2080" y2="353" stroke="#0E7490" stroke-width="1.8"/><line x1="1884" y1="307" x2="1884" y2="353" stroke="#0E7490" stroke-width="1.4"/><line x1="1840" y1="307" x2="1840" y2="353" stroke="#0E7490" stroke-width="1.8"/><text x="1862" y="335.5" font-family="Segoe UI, Arial, sans-serif" font-size="14" font-weight="700" fill="#0E7490" text-anchor="middle" >D1</text><text x="1896" y="330.5" font-family="Segoe UI, Arial, sans-serif" font-size="14.6" font-weight="600" fill="#0F172A" text-anchor="start" >Profiles &amp; Roles</text><text x="1896" y="347" font-family="Segoe UI, Arial, sans-serif" font-size="11.3" font-weight="400" fill="#64748B" text-anchor="start" >profiles · user_roles</text><path d="M460 555 L460 353" fill="none" stroke="#7C8BA1" stroke-width="1.6"  stroke-linejoin="round"/><path d="M463.2 359.8 L460 353 L456.8 359.8 Z" fill="#7C8BA1"/><path d="M456.8 548.2 L460 555 L463.2 548.2 Z" fill="#7C8BA1"/><path d="M760 555 L760 353" fill="none" stroke="#7C8BA1" stroke-width="1.6"  stroke-linejoin="round"/><path d="M763.2 359.8 L760 353 L756.8 359.8 Z" fill="#7C8BA1"/><path d="M756.8 548.2 L760 555 L763.2 548.2 Z" fill="#7C8BA1"/><path d="M1060 555 L1060 353" fill="none" stroke="#7C8BA1" stroke-width="1.6"  stroke-linejoin="round"/><path d="M1063.2 359.8 L1060 353 L1056.8 359.8 Z" fill="#7C8BA1"/><path d="M1056.8 548.2 L1060 555 L1063.2 548.2 Z" fill="#7C8BA1"/><path d="M1360 555 L1360 353" fill="none" stroke="#7C8BA1" stroke-width="1.6"  stroke-linejoin="round"/><path d="M1363.2 359.8 L1360 353 L1356.8 359.8 Z" fill="#7C8BA1"/><path d="M1356.8 548.2 L1360 555 L1363.2 548.2 Z" fill="#7C8BA1"/><path d="M1660 555 L1660 353" fill="none" stroke="#7C8BA1" stroke-width="1.6"  stroke-linejoin="round"/><path d="M1663.2 359.8 L1660 353 L1656.8 359.8 Z" fill="#7C8BA1"/><path d="M1656.8 548.2 L1660 555 L1663.2 548.2 Z" fill="#7C8BA1"/><path d="M1960 555 L1960 353" fill="none" stroke="#7C8BA1" stroke-width="1.6"  stroke-linejoin="round"/><path d="M1963.2 359.8 L1960 353 L1956.8 359.8 Z" fill="#7C8BA1"/><path d="M1956.8 548.2 L1960 555 L1963.2 548.2 Z" fill="#7C8BA1"/><rect x="340" y="867" width="240" height="46" fill="#ECFEFF" opacity="0.55"/><line x1="340" y1="867" x2="580" y2="867" stroke="#0E7490" stroke-width="1.8"/><line x1="340" y1="913" x2="580" y2="913" stroke="#0E7490" stroke-width="1.8"/><line x1="384" y1="867" x2="384" y2="913" stroke="#0E7490" stroke-width="1.4"/><line x1="340" y1="867" x2="340" y2="913" stroke="#0E7490" stroke-width="1.8"/><text x="362" y="895.5" font-family="Segoe UI, Arial, sans-serif" font-size="14" font-weight="700" fill="#0E7490" text-anchor="middle" >D3</text><text x="396" y="890.5" font-family="Segoe UI, Arial, sans-serif" font-size="14.6" font-weight="600" fill="#0F172A" text-anchor="start" >Orders &amp; Proofs</text><text x="396" y="907" font-family="Segoe UI, Arial, sans-serif" font-size="11.3" font-weight="400" fill="#64748B" text-anchor="start" >orders · order-screenshots</text><rect x="340" y="962" width="240" height="46" fill="#ECFEFF" opacity="0.55"/><line x1="340" y1="962" x2="580" y2="962" stroke="#0E7490" stroke-width="1.8"/><line x1="340" y1="1008" x2="580" y2="1008" stroke="#0E7490" stroke-width="1.8"/><line x1="384" y1="962" x2="384" y2="1008" stroke="#0E7490" stroke-width="1.4"/><line x1="340" y1="962" x2="340" y2="1008" stroke="#0E7490" stroke-width="1.8"/><text x="362" y="990.5" font-family="Segoe UI, Arial, sans-serif" font-size="14" font-weight="700" fill="#0E7490" text-anchor="middle" >D4</text><text x="396" y="985.5" font-family="Segoe UI, Arial, sans-serif" font-size="14.6" font-weight="600" fill="#0F172A" text-anchor="start" >Reservation Audit</text><text x="396" y="1002" font-family="Segoe UI, Arial, sans-serif" font-size="11.3" font-weight="400" fill="#64748B" text-anchor="start" >reservation_events · cardholder_reliability</text><path d="M460 725 L460 867" fill="none" stroke="#7C8BA1" stroke-width="1.6"  stroke-linejoin="round"/><path d="M456.8 860.2 L460 867 L463.2 860.2 Z" fill="#7C8BA1"/><path d="M463.2 731.8 L460 725 L456.8 731.8 Z" fill="#7C8BA1"/><path d="M580 700 L605 700 L605 985 L582 985" fill="none" stroke="#7C8BA1" stroke-width="1.6"  stroke-linejoin="round"/><path d="M588.8 981.8 L582 985 L588.8 988.2 Z" fill="#7C8BA1"/><rect x="940" y="867" width="240" height="46" fill="#ECFEFF" opacity="0.55"/><line x1="940" y1="867" x2="1180" y2="867" stroke="#0E7490" stroke-width="1.8"/><line x1="940" y1="913" x2="1180" y2="913" stroke="#0E7490" stroke-width="1.8"/><line x1="984" y1="867" x2="984" y2="913" stroke="#0E7490" stroke-width="1.4"/><line x1="940" y1="867" x2="940" y2="913" stroke="#0E7490" stroke-width="1.8"/><text x="962" y="895.5" font-family="Segoe UI, Arial, sans-serif" font-size="14" font-weight="700" fill="#0E7490" text-anchor="middle" >D6</text><text x="996" y="890.5" font-family="Segoe UI, Arial, sans-serif" font-size="14.6" font-weight="600" fill="#0F172A" text-anchor="start" >KYC Records</text><text x="996" y="907" font-family="Segoe UI, Arial, sans-serif" font-size="11.3" font-weight="400" fill="#64748B" text-anchor="start" >kycs · kyc-documents</text><rect x="940" y="962" width="240" height="46" fill="#ECFEFF" opacity="0.55"/><line x1="940" y1="962" x2="1180" y2="962" stroke="#0E7490" stroke-width="1.8"/><line x1="940" y1="1008" x2="1180" y2="1008" stroke="#0E7490" stroke-width="1.8"/><line x1="984" y1="962" x2="984" y2="1008" stroke="#0E7490" stroke-width="1.4"/><line x1="940" y1="962" x2="940" y2="1008" stroke="#0E7490" stroke-width="1.8"/><text x="962" y="990.5" font-family="Segoe UI, Arial, sans-serif" font-size="14" font-weight="700" fill="#0E7490" text-anchor="middle" >D10</text><text x="996" y="985.5" font-family="Segoe UI, Arial, sans-serif" font-size="14.6" font-weight="600" fill="#0F172A" text-anchor="start" >Withdrawal Requests</text><text x="996" y="1002" font-family="Segoe UI, Arial, sans-serif" font-size="11.3" font-weight="400" fill="#64748B" text-anchor="start" >withdrawal_requests</text><path d="M1060 725 L1060 867" fill="none" stroke="#7C8BA1" stroke-width="1.6"  stroke-linejoin="round"/><path d="M1056.8 860.2 L1060 867 L1063.2 860.2 Z" fill="#7C8BA1"/><path d="M1063.2 731.8 L1060 725 L1056.8 731.8 Z" fill="#7C8BA1"/><path d="M1180 700 L1205 700 L1205 985 L1182 985" fill="none" stroke="#7C8BA1" stroke-width="1.6"  stroke-linejoin="round"/><path d="M1188.8 981.8 L1182 985 L1188.8 988.2 Z" fill="#7C8BA1"/><path d="M1186.8 696.8 L1180 700 L1186.8 703.2 Z" fill="#7C8BA1"/><rect x="24" y="419" width="190" height="72" rx="6" fill="#0F172A" opacity="0.07"/><rect x="20" y="414" width="190" height="72" rx="6" fill="#F1F5F9" stroke="#94A3B8" stroke-width="1.6"  /><text x="115" y="456" font-family="Segoe UI, Arial, sans-serif" font-size="16" font-weight="700" fill="#0F172A" text-anchor="middle" >Shopper</text><rect x="24" y="729" width="190" height="72" rx="6" fill="#0F172A" opacity="0.07"/><rect x="20" y="724" width="190" height="72" rx="6" fill="#F1F5F9" stroke="#94A3B8" stroke-width="1.6"  /><text x="115" y="766" font-family="Segoe UI, Arial, sans-serif" font-size="16" font-weight="700" fill="#0F172A" text-anchor="middle" >Card Holder</text><rect x="24" y="1059" width="190" height="72" rx="6" fill="#0F172A" opacity="0.07"/><rect x="20" y="1054" width="190" height="72" rx="6" fill="#F1F5F9" stroke="#94A3B8" stroke-width="1.6"  /><text x="115" y="1096" font-family="Segoe UI, Arial, sans-serif" font-size="16" font-weight="700" fill="#0F172A" text-anchor="middle" >Admin</text><rect x="1564" y="1056" width="200" height="78" rx="6" fill="#0F172A" opacity="0.07"/><rect x="1560" y="1051" width="200" height="78" rx="6" fill="#F1F5F9" stroke="#94A3B8" stroke-width="1.6"  /><text x="1660" y="1085.5" font-family="Segoe UI, Arial, sans-serif" font-size="16" font-weight="700" fill="#0F172A" text-anchor="middle" >E-commerce</text><text x="1660" y="1106.5" font-family="Segoe UI, Arial, sans-serif" font-size="16" font-weight="700" fill="#0F172A" text-anchor="middle" >Platforms</text><rect x="1809" y="892" width="190" height="66" rx="6" fill="#0F172A" opacity="0.07"/><rect x="1805" y="887" width="190" height="66" rx="6" fill="#F1F5F9" stroke="#94A3B8" stroke-width="1.6"  /><text x="1900" y="926" font-family="Segoe UI, Arial, sans-serif" font-size="16" font-weight="700" fill="#0F172A" text-anchor="middle" >Google OAuth</text><rect x="1809" y="1018" width="190" height="66" rx="6" fill="#0F172A" opacity="0.07"/><rect x="1805" y="1013" width="190" height="66" rx="6" fill="#F1F5F9" stroke="#94A3B8" stroke-width="1.6"  /><text x="1900" y="1052" font-family="Segoe UI, Arial, sans-serif" font-size="16" font-weight="700" fill="#0F172A" text-anchor="middle" >Email Service</text><path d="M210 450 L380 450 L380 555" fill="none" stroke="#64748B" stroke-width="1.6"  stroke-linejoin="round"/><path d="M376.8 548.2 L380 555 L383.2 548.2 Z" fill="#64748B"/><path d="M216.8 446.8 L210 450 L216.8 453.2 Z" fill="#64748B"/><rect x="207.54200000000003" y="430.75" width="169.91599999999997" height="38.5" rx="6" fill="#FFFFFF" opacity="0.94"/><text x="292.5" y="445" font-family="Segoe UI, Arial, sans-serif" font-size="12.2" font-weight="500" fill="#64748B" text-anchor="middle" >deal request · cancellation /</text><text x="292.5" y="460.25" font-family="Segoe UI, Arial, sans-serif" font-size="12.2" font-weight="500" fill="#64748B" text-anchor="middle" >status &amp; approvals</text><path d="M210 760 L400 760 L400 725" fill="none" stroke="#64748B" stroke-width="1.6"  stroke-linejoin="round"/><path d="M403.2 731.8 L400 725 L396.8 731.8 Z" fill="#64748B"/><path d="M216.8 756.8 L210 760 L216.8 763.2 Z" fill="#64748B"/><rect x="190.08800000000002" y="738.75" width="183.82399999999996" height="38.5" rx="6" fill="#FFFFFF" opacity="0.94"/><text x="282" y="753" font-family="Segoe UI, Arial, sans-serif" font-size="12.2" font-weight="500" fill="#64748B" text-anchor="middle" >accept / release · order proof /</text><text x="282" y="768.25" font-family="Segoe UI, Arial, sans-serif" font-size="12.2" font-weight="500" fill="#64748B" text-anchor="middle" >open deals · countdown</text><path d="M160 796 L160 830 L292 830 A8 8 0 0 1 308 830 L452 830 A8 8 0 0 1 468 830 L597 830 A8 8 0 0 1 613 830 L900 830 L900 705 L940 705" fill="none" stroke="#64748B" stroke-width="1.6"  stroke-linejoin="round"/><path d="M933.2 708.2 L940 705 L933.2 701.8 Z" fill="#64748B"/><rect x="532.499" y="818.3125" width="219.902" height="23.375" rx="6" fill="#FFFFFF" opacity="0.94"/><text x="642.45" y="832.6875" font-family="Segoe UI, Arial, sans-serif" font-size="12.3" font-weight="500" fill="#64748B" text-anchor="middle" >KYC documents · withdrawal request</text><path d="M135 414 L135 196 L1500 196 L1500 600 L1540 600" fill="none" stroke="#64748B" stroke-width="1.6"  stroke-linejoin="round"/><path d="M1533.2 603.2 L1540 600 L1533.2 596.8 Z" fill="#64748B"/><rect x="698.7810000000001" y="184.3125" width="260.73799999999994" height="23.375" rx="6" fill="#FFFFFF" opacity="0.94"/><text x="829.15" y="198.6875" font-family="Segoe UI, Arial, sans-serif" font-size="12.3" font-weight="500" fill="#64748B" text-anchor="middle" >product URL · target price · manual re-check</text><path d="M115 1054 L115 780 L420 780 L420 725" fill="none" stroke="#64748B" stroke-width="1.6"  stroke-linejoin="round"/><path d="M423.2 731.8 L420 725 L416.8 731.8 Z" fill="#64748B"/><path d="M111.8 1047.2 L115 1054 L118.2 1047.2 Z" fill="#64748B"/><rect x="40.104" y="794.345" width="149.792" height="38.75" rx="6" fill="#FFFFFF" opacity="0.94"/><text x="115" y="808.72" font-family="Segoe UI, Arial, sans-serif" font-size="12.3" font-weight="500" fill="#64748B" text-anchor="middle" >review &amp; completion</text><text x="115" y="824.095" font-family="Segoe UI, Arial, sans-serif" font-size="12.3" font-weight="500" fill="#64748B" text-anchor="middle" >verdicts / pending deals</text><path d="M210 1080 L292 1080 A8 8 0 0 1 308 1080 L920 1080 L920 715 L940 715" fill="none" stroke="#64748B" stroke-width="1.6"  stroke-linejoin="round"/><path d="M933.2 718.2 L940 715 L933.2 711.8 Z" fill="#64748B"/><path d="M216.8 1076.8 L210 1080 L216.8 1083.2 Z" fill="#64748B"/><rect x="532.274" y="1068.3125" width="275.2519999999999" height="23.375" rx="6" fill="#FFFFFF" opacity="0.94"/><text x="669.9" y="1082.6875" font-family="Segoe UI, Arial, sans-serif" font-size="12.3" font-weight="500" fill="#64748B" text-anchor="middle" >KYC verdicts · withdrawal settlement / queues</text><path d="M115 414 L115 230 L2100 230 L2100 600 L2080 600" fill="none" stroke="#64748B" stroke-width="1.6"  stroke-linejoin="round"/><path d="M2086.8 596.8 L2080 600 L2086.8 603.2 Z" fill="#64748B"/><path d="M111.8 407.2 L115 414 L118.2 407.2 Z" fill="#64748B"/><rect x="900.644" y="218.3125" width="363.812" height="23.375" rx="6" fill="#FFFFFF" opacity="0.94"/><text x="1082.55" y="232.6875" font-family="Segoe UI, Arial, sans-serif" font-size="12.3" font-weight="500" fill="#64748B" text-anchor="middle" >sign-up / sign-in · OTP verification · session  (both user roles)</text><path d="M640 580 L615 580 L615 262 L95 262 L95 414" fill="none" stroke="#64748B" stroke-width="1.6"  stroke-linejoin="round"/><path d="M91.8 407.2 L95 414 L98.2 407.2 Z" fill="#64748B"/><rect x="308.618" y="250.3125" width="182.264" height="23.375" rx="6" fill="#FFFFFF" opacity="0.94"/><text x="399.75" y="264.6875" font-family="Segoe UI, Arial, sans-serif" font-size="12.3" font-weight="500" fill="#64748B" text-anchor="middle" >in-app notifications (all users)</text><path d="M1930 725 L1930 887" fill="none" stroke="#64748B" stroke-width="1.6"  stroke-linejoin="round"/><path d="M1926.8 880.2 L1930 887 L1933.2 880.2 Z" fill="#64748B"/><path d="M1933.2 731.8 L1930 725 L1926.8 731.8 Z" fill="#64748B"/><rect x="1894.326" y="787.25" width="71.34800000000001" height="37.5" rx="6" fill="#FFFFFF" opacity="0.94"/><text x="1930" y="801" font-family="Segoe UI, Arial, sans-serif" font-size="11.8" font-weight="500" fill="#64748B" text-anchor="middle" >OAuth</text><text x="1930" y="815.75" font-family="Segoe UI, Arial, sans-serif" font-size="11.8" font-weight="500" fill="#64748B" text-anchor="middle" >handshake</text><path d="M2080 690 L2110 690 L2110 1046 L1995 1046" fill="none" stroke="#64748B" stroke-width="1.6"  stroke-linejoin="round"/><path d="M2001.8 1042.8 L1995 1046 L2001.8 1049.2 Z" fill="#64748B"/><rect x="2009.1799999999998" y="1001.25" width="91.88" height="37.5" rx="6" fill="#FFFFFF" opacity="0.94"/><text x="2055.12" y="1015" font-family="Segoe UI, Arial, sans-serif" font-size="11.8" font-weight="500" fill="#64748B" text-anchor="middle" >OTP &amp; account</text><text x="2055.12" y="1029.75" font-family="Segoe UI, Arial, sans-serif" font-size="11.8" font-weight="500" fill="#64748B" text-anchor="middle" >emails</text><path d="M1690 725 L1690 1051" fill="none" stroke="#64748B" stroke-width="1.6"  stroke-linejoin="round"/><path d="M1686.8 1044.2 L1690 1051 L1693.2 1044.2 Z" fill="#64748B"/><rect x="1659.388" y="827.725" width="69.22399999999999" height="22.75" rx="6" fill="#FFFFFF" opacity="0.94"/><text x="1694" y="841.475" font-family="Segoe UI, Arial, sans-serif" font-size="11.8" font-weight="500" fill="#64748B" text-anchor="middle" >page fetch</text><path d="M1630 1051 L1630 725" fill="none" stroke="#64748B" stroke-width="1.6"  stroke-linejoin="round"/><path d="M1633.2 731.8 L1630 725 L1626.8 731.8 Z" fill="#64748B"/><rect x="1591.388" y="830.13" width="69.22399999999999" height="37.5" rx="6" fill="#FFFFFF" opacity="0.94"/><text x="1626" y="843.88" font-family="Segoe UI, Arial, sans-serif" font-size="11.8" font-weight="500" fill="#64748B" text-anchor="middle" >price &amp;</text><text x="1626" y="858.63" font-family="Segoe UI, Arial, sans-serif" font-size="11.8" font-weight="500" fill="#64748B" text-anchor="middle" >stock data</text><path d="M580 690 L610 690 L610 760 L970 760 L970 725" fill="none" stroke="#4F46E5" stroke-width="1.8"  stroke-linejoin="round"/><path d="M973.2 731.8 L970 725 L966.8 731.8 Z" fill="#4F46E5"/><rect x="684.722" y="748.3125" width="195.05599999999995" height="23.375" rx="6" fill="#FFFFFF" opacity="0.94"/><text x="782.25" y="762.6875" font-family="Segoe UI, Arial, sans-serif" font-size="12.3" font-weight="500" fill="#3730A3" text-anchor="middle" >payout instruction on completion</text><path d="M340 700 L300 700 L300 1150 L1310 1150 L1310 725" fill="none" stroke="#4F46E5" stroke-width="1.8"  stroke-linejoin="round"/><path d="M1313.2 731.8 L1310 725 L1306.8 731.8 Z" fill="#4F46E5"/><rect x="745.761" y="1138.3125" width="245.97800000000004" height="23.375" rx="6" fill="#FFFFFF" opacity="0.94"/><text x="868.75" y="1152.6875" font-family="Segoe UI, Arial, sans-serif" font-size="12.3" font-weight="500" fill="#3730A3" text-anchor="middle" >first completed deal (referral qualification)</text><path d="M1840 690 L1810 690 L1810 760 L1698 760 A8 8 0 0 0 1682 760 L1638 760 A8 8 0 0 0 1622 760 L1508 760 A8 8 0 0 0 1492 760 L1440 760 L1440 725" fill="none" stroke="#4F46E5" stroke-width="1.8"  stroke-linejoin="round"/><path d="M1443.2 731.8 L1440 725 L1436.8 731.8 Z" fill="#4F46E5"/><rect x="1565.63" y="748.3125" width="183.73999999999998" height="23.375" rx="6" fill="#FFFFFF" opacity="0.94"/><text x="1657.5" y="762.6875" font-family="Segoe UI, Arial, sans-serif" font-size="12.3" font-weight="500" fill="#3730A3" text-anchor="middle" >referral attribution (invite code)</text><path d="M1310 555 L1310 410 L1120 410 L1120 353" fill="none" stroke="#4F46E5" stroke-width="1.8"  stroke-linejoin="round"/><path d="M1123.2 359.8 L1120 353 L1116.8 359.8 Z" fill="#4F46E5"/><rect x="1231.414" y="398.425" width="157.17199999999997" height="38.75" rx="6" fill="#FFFFFF" opacity="0.94"/><text x="1310" y="412.8" font-family="Segoe UI, Arial, sans-serif" font-size="12.3" font-weight="500" fill="#3730A3" text-anchor="middle" >reward &amp; welcome-bonus</text><text x="1310" y="428.175" font-family="Segoe UI, Arial, sans-serif" font-size="12.3" font-weight="500" fill="#3730A3" text-anchor="middle" >credit + ledger entry</text><path d="M580 590 L640 590" fill="none" stroke="#94A3B8" stroke-width="1.6"  stroke-linejoin="round"/><path d="M633.2 593.2 L640 590 L633.2 586.8 Z" fill="#94A3B8"/><path d="M940 590 L880 590" fill="none" stroke="#94A3B8" stroke-width="1.6"  stroke-linejoin="round"/><path d="M886.8 586.8 L880 590 L886.8 593.2 Z" fill="#94A3B8"/><path d="M1720 555 L1720 490" fill="none" stroke="#94A3B8" stroke-width="1.6"  stroke-linejoin="round"/><path d="M1720 490 L1508 490 A8 8 0 0 0 1492 490 L1368 490 A8 8 0 0 0 1352 490 L1318 490 A8 8 0 0 0 1302 490 L1068 490 A8 8 0 0 0 1052 490 L830 490 L830 555" fill="none" stroke="#94A3B8" stroke-width="1.6"  stroke-linejoin="round"/><path d="M826.8 548.2 L830 555 L833.2 548.2 Z" fill="#94A3B8"/><rect x="1126.17" y="478.3125" width="385.46" height="23.375" rx="6" fill="#FFFFFF" opacity="0.94"/><text x="1318.9" y="492.6875" font-family="Segoe UI, Arial, sans-serif" font-size="12.3" font-weight="500" fill="#64748B" text-anchor="middle" >notification requests (deal events · payouts · rewards · price alerts)</text><path d="M1440 555 L1440 490" fill="none" stroke="#94A3B8" stroke-width="1.6"  stroke-linejoin="round"/><rect x="620" y="1265" width="50" height="28" rx="5" fill="#F1F5F9" stroke="#94A3B8" stroke-width="1.3"  /><text x="682" y="1285" font-family="Segoe UI, Arial, sans-serif" font-size="13" font-weight="400" fill="#64748B" text-anchor="start" >External entity</text><rect x="840" y="1265" width="50" height="28" rx="9" fill="#FFFFFF" stroke="#4F46E5" stroke-width="1.5"  /><text x="902" y="1285" font-family="Segoe UI, Arial, sans-serif" font-size="13" font-weight="400" fill="#64748B" text-anchor="start" >Process</text><line x1="1010" y1="1265" x2="1060" y2="1265" stroke="#0E7490" stroke-width="1.6"/><line x1="1010" y1="1291" x2="1060" y2="1291" stroke="#0E7490" stroke-width="1.6"/><text x="1072" y="1285" font-family="Segoe UI, Arial, sans-serif" font-size="13" font-weight="400" fill="#64748B" text-anchor="start" >Data store</text><path d="M1200 1278 L1250 1278" fill="none" stroke="#64748B" stroke-width="1.6"  stroke-linejoin="round"/><path d="M1243.2 1281.2 L1250 1278 L1243.2 1274.8 Z" fill="#64748B"/><text x="1262" y="1285" font-family="Segoe UI, Arial, sans-serif" font-size="13" font-weight="400" fill="#64748B" text-anchor="start" >Data flow</text>
</svg>